<svg width="300" height="301" viewBox="0 0 300 301" fill="none" xmlns="http://www.w3.org/2000/svg">
<path d="M92.6016 198.468C94.2581 198.468 95.6012 199.812 95.6016 201.468V221.406C95.6016 223.063 94.2584 224.406 92.6016 224.406H61.9492C60.2924 224.406 58.9492 223.063 58.9492 221.406V201.468C58.9496 199.812 60.2926 198.468 61.9492 198.468H92.6016Z" fill="url(#paint0_linear_897_14)"/>
<path d="M238.049 198.468C239.705 198.468 241.048 199.812 241.049 201.468V221.406C241.049 223.063 239.706 224.406 238.049 224.406H207.396C205.74 224.406 204.396 223.063 204.396 221.406V201.468C204.397 199.812 205.74 198.468 207.396 198.468H238.049Z" fill="url(#paint1_linear_897_14)"/>
<path d="M238.049 137.833C239.705 137.833 241.048 139.176 241.049 140.833V160.77C241.049 162.427 239.706 163.77 238.049 163.77H207.396C205.74 163.77 204.397 162.427 204.396 160.77V140.833C204.397 139.176 205.74 137.833 207.396 137.833H238.049Z" fill="url(#paint2_linear_897_14)"/>
<path d="M92.6016 137.832C94.258 137.832 95.6009 139.175 95.6016 140.832V160.769C95.6016 162.426 94.2584 163.769 92.6016 163.769H61.9492C60.2924 163.769 58.9492 162.426 58.9492 160.769V140.832C58.9499 139.175 60.2928 137.832 61.9492 137.832H92.6016Z" fill="url(#paint3_linear_897_14)"/>
<path d="M92.6016 77.1958C94.258 77.1958 95.6009 78.5396 95.6016 80.1958V100.133C95.6016 101.79 94.2584 103.133 92.6016 103.133H61.9492C60.2925 103.133 58.9492 101.79 58.9492 100.133V80.1958C58.9499 78.5396 60.2929 77.1959 61.9492 77.1958H92.6016Z" fill="url(#paint4_linear_897_14)"/>
<path d="M165.445 77.1958C167.102 77.1958 168.445 78.5396 168.445 80.1958V100.133C168.445 101.79 167.102 103.133 165.445 103.133H134.793C133.136 103.133 131.793 101.79 131.793 100.133V80.1958C131.794 78.5396 133.137 77.1959 134.793 77.1958H165.445Z" fill="url(#paint5_linear_897_14)"/>
<path d="M238.049 77.1958C239.705 77.1958 241.048 78.5396 241.049 80.1958V100.133C241.049 101.79 239.706 103.133 238.049 103.133H207.396C205.74 103.133 204.396 101.79 204.396 100.133V80.1958C204.397 78.5395 205.74 77.1958 207.396 77.1958H238.049Z" fill="url(#paint6_linear_897_14)"/>
<path fill-rule="evenodd" clip-rule="evenodd" d="M261 48.1968C266.523 48.1968 271 52.6739 271 58.1968V243.406C271 248.929 266.523 253.406 261 253.406H39C33.4772 253.406 29 248.929 29 243.406V58.1968C29 52.6739 33.4772 48.1968 39 48.1968H261ZM52.1133 186.33C48.7999 186.33 46.1136 189.016 46.1133 192.33V230.544C46.1134 233.858 48.7997 236.544 52.1133 236.544H102.439C105.753 236.544 108.439 233.858 108.439 230.544V192.33C108.439 189.016 105.753 186.33 102.439 186.33H52.1133ZM197.561 186.33C194.247 186.33 191.561 189.016 191.561 192.33V230.544C191.561 233.858 194.247 236.544 197.561 236.544H247.886C251.199 236.544 253.886 233.858 253.886 230.544V192.33C253.885 189.016 251.199 186.33 247.886 186.33H197.561ZM133.792 126.657C131.662 126.892 130.042 128.882 130.045 131.257V176.645C130.045 177.197 129.597 177.645 129.045 177.645H118.581C115.136 177.628 113.16 181.988 115.232 185.042L146.786 227.208C148.451 229.678 151.787 229.678 153.452 227.208L185.006 185.042C187.079 181.988 185.102 177.623 181.657 177.645H171.202C170.65 177.645 170.202 177.197 170.202 176.645V131.257C170.194 128.719 168.343 126.666 166.056 126.657H134.19C134.057 126.65 133.925 126.65 133.792 126.657ZM197.561 125.694C194.247 125.694 191.561 128.38 191.561 131.694V169.909C191.561 173.222 194.247 175.909 197.561 175.909H247.886C251.199 175.909 253.886 173.222 253.886 169.909V131.694C253.885 128.38 251.199 125.694 247.886 125.694H197.561ZM52.1133 125.693C48.8001 125.693 46.1139 128.38 46.1133 131.693V169.908C46.1134 173.221 48.7997 175.908 52.1133 175.908H102.439C105.753 175.908 108.439 173.221 108.439 169.908V131.693C108.439 128.38 105.753 125.693 102.439 125.693H52.1133ZM52.1133 65.0571C48.8002 65.0574 46.1139 67.7441 46.1133 71.0571V109.272C46.1134 112.585 48.7998 115.272 52.1133 115.272H102.439C105.753 115.272 108.439 112.585 108.439 109.272V71.0571C108.439 67.7441 105.753 65.0573 102.439 65.0571H52.1133ZM124.957 65.0571C121.644 65.0572 118.958 67.744 118.957 71.0571V109.272C118.957 112.586 121.643 115.272 124.957 115.272H175.283C178.597 115.272 181.283 112.585 181.283 109.272V71.0571C181.283 67.7439 178.596 65.0571 175.282 65.0571H124.957ZM197.561 65.0571C194.247 65.0571 191.561 67.744 191.561 71.0571V109.272C191.561 112.586 194.247 115.272 197.561 115.272H247.886C251.199 115.272 253.886 112.586 253.886 109.272V71.0571C253.885 67.744 251.199 65.0571 247.886 65.0571H197.561Z" fill="url(#paint7_linear_897_14)"/>
<defs>
<linearGradient id="paint0_linear_897_14" x1="150" y1="48.1989" x2="150" y2="253.406" gradientUnits="userSpaceOnUse">
<stop stop-color="white"/>
<stop offset="1" stop-color="#E7A63F"/>
</linearGradient>
<linearGradient id="paint1_linear_897_14" x1="150" y1="48.1989" x2="150" y2="253.406" gradientUnits="userSpaceOnUse">
<stop stop-color="white"/>
<stop offset="1" stop-color="#E7A63F"/>
</linearGradient>
<linearGradient id="paint2_linear_897_14" x1="150" y1="48.1989" x2="150" y2="253.406" gradientUnits="userSpaceOnUse">
<stop stop-color="white"/>
<stop offset="1" stop-color="#E7A63F"/>
</linearGradient>
<linearGradient id="paint3_linear_897_14" x1="150" y1="48.1989" x2="150" y2="253.406" gradientUnits="userSpaceOnUse">
<stop stop-color="white"/>
<stop offset="1" stop-color="#E7A63F"/>
</linearGradient>
<linearGradient id="paint4_linear_897_14" x1="150" y1="48.1989" x2="150" y2="253.406" gradientUnits="userSpaceOnUse">
<stop stop-color="white"/>
<stop offset="1" stop-color="#E7A63F"/>
</linearGradient>
<linearGradient id="paint5_linear_897_14" x1="150" y1="48.1989" x2="150" y2="253.406" gradientUnits="userSpaceOnUse">
<stop stop-color="white"/>
<stop offset="1" stop-color="#E7A63F"/>
</linearGradient>
<linearGradient id="paint6_linear_897_14" x1="150" y1="48.1989" x2="150" y2="253.406" gradientUnits="userSpaceOnUse">
<stop stop-color="white"/>
<stop offset="1" stop-color="#E7A63F"/>
</linearGradient>
<linearGradient id="paint7_linear_897_14" x1="150" y1="48.1989" x2="150" y2="253.406" gradientUnits="userSpaceOnUse">
<stop stop-color="white"/>
<stop offset="1" stop-color="#E7A63F"/>
</linearGradient>
</defs>
</svg>
