<svg width="300" height="301" viewBox="0 0 300 301" fill="none" xmlns="http://www.w3.org/2000/svg">
<path fill-rule="evenodd" clip-rule="evenodd" d="M259.49 48.196C262.543 48.196 265.47 49.4086 267.629 51.5672C269.787 53.7256 271 56.6531 271 59.7056V80.9009C271 83.11 269.209 84.9009 267 84.9009H33.0003C30.7911 84.9009 29.0003 83.11 29.0003 80.9009V59.7056C29.0003 56.6531 30.213 53.7256 32.3714 51.5672C34.5299 49.4086 37.4573 48.196 40.5098 48.196H259.49ZM102.651 59.9914C99.0323 59.9914 96.0941 62.9295 96.0941 66.5485C96.0941 70.1674 99.0323 73.1055 102.651 73.1055C106.27 73.1055 109.208 70.1674 109.208 66.5485C109.208 62.9295 106.27 59.9914 102.651 59.9914ZM49.7878 59.9914C46.1689 59.9914 43.2308 62.9295 43.2308 66.5485C43.2308 70.1674 46.1689 73.1055 49.7878 73.1055C53.4067 73.1055 56.3449 70.1674 56.3449 66.5485C56.3449 62.9295 53.4067 59.9914 49.7878 59.9914ZM76.2195 59.9914C72.6006 59.9914 69.6625 62.9295 69.6625 66.5485C69.6625 70.1674 72.6006 73.1055 76.2195 73.1055C79.8384 73.1055 82.7765 70.1674 82.7765 66.5485C82.7765 62.9295 79.8384 59.9914 76.2195 59.9914ZM267 95.9426C269.209 95.9426 271 97.7335 271 99.9426V241.897C271 244.949 269.787 247.877 267.629 250.035C265.47 252.194 262.543 253.406 259.49 253.406H40.5096C37.457 253.406 34.5296 252.194 32.3712 250.035C30.2127 247.877 29 244.949 29 241.897V198.275H75.2198C77.4188 198.275 79.423 197.014 80.3745 195.031L87.3363 180.524L104.564 215.331C105.716 217.659 108.179 219.041 110.766 218.811C113.353 218.58 115.533 216.785 116.255 214.29L137.64 140.475L167.8 235.227C168.614 237.784 170.923 239.572 173.602 239.722C176.281 239.871 178.775 238.35 179.868 235.9L196.651 198.275H247.318C250.498 198.275 253.075 195.697 253.075 192.517V192.473C253.075 190.946 252.469 189.482 251.389 188.402C250.309 187.322 248.845 186.716 247.318 186.716H194.005C190.724 186.716 187.745 188.63 186.382 191.614L174.553 217.502L143.956 117.67C143.18 115.137 140.838 113.41 138.188 113.417C135.539 113.424 133.206 115.164 132.443 117.701L108.823 196.282L92.899 165.005C91.8804 163.005 89.8178 161.752 87.5728 161.771C85.3278 161.79 83.2866 163.076 82.3017 165.094L71.7457 186.716H29V99.9423C29 97.7332 30.7909 95.9423 33 95.9423L267 95.9426Z" fill="url(#paint0_linear_897_41)"/>
<defs>
<linearGradient id="paint0_linear_897_41" x1="150" y1="48.1972" x2="150" y2="253.407" gradientUnits="userSpaceOnUse">
<stop stop-color="white"/>
<stop offset="1" stop-color="#E7A63F"/>
</linearGradient>
</defs>
</svg>
