<svg width="300" height="301" viewBox="0 0 300 301" fill="none" xmlns="http://www.w3.org/2000/svg">
<path d="M150 29.8013C216.826 29.8013 271 83.9748 271 150.801C271 217.628 216.826 271.801 150 271.801C83.1735 271.801 29 217.628 29 150.801C29 83.9748 83.1735 29.8013 150 29.8013ZM150 44.8013C91.4578 44.8013 44 92.2591 44 150.801C44 209.343 91.4578 256.801 150 256.801C208.542 256.801 256 209.343 256 150.801C256 92.2591 208.542 44.8013 150 44.8013ZM149.966 55.8013C163.102 55.8013 175.453 58.2941 187.019 63.2798C198.582 68.2655 208.641 75.0322 217.196 83.5786C225.752 92.1251 232.524 102.175 237.514 113.73C242.505 125.283 245 137.629 245 150.767C245 163.903 242.507 176.254 237.521 187.82C232.536 199.383 225.769 209.442 217.223 217.998C208.676 226.553 198.626 233.326 187.071 238.315C175.518 243.306 163.172 245.801 150.034 245.801C136.898 245.801 124.547 243.308 112.981 238.323C101.418 233.337 91.3589 226.57 82.8037 218.024C74.2485 209.477 67.4756 199.427 62.4863 187.873C57.4953 176.32 55 163.974 55 150.835C55 137.699 57.4928 125.348 62.4785 113.783C67.4642 102.219 74.2309 92.1602 82.7773 83.605C91.3238 75.0497 101.374 68.2769 112.929 63.2876C124.482 58.2966 136.828 55.8013 149.966 55.8013ZM149.992 214.134C148.495 214.134 147.242 214.64 146.234 215.652C145.226 216.663 144.723 217.917 144.723 219.413V229.968C144.723 231.463 145.229 232.717 146.242 233.728C147.255 234.74 148.511 235.246 150.008 235.246C151.505 235.246 152.758 234.74 153.766 233.728C154.774 232.717 155.277 231.463 155.277 229.968V219.413C155.277 217.917 154.771 216.663 153.758 215.652C152.745 214.64 151.489 214.134 149.992 214.134ZM149.992 95.7661C148.495 95.7661 147.242 96.2721 146.234 97.2837C145.226 98.2953 144.723 99.5491 144.723 101.044V122.327C143.742 121.727 142.715 121.195 141.643 120.734C138.643 119.446 135.469 118.801 132.119 118.801C125.501 118.801 119.994 121.019 115.597 125.453C111.199 129.888 109 135.413 109 142.03C109 149.858 111.779 156.921 117.338 163.216C122.896 169.511 129.061 175.737 135.834 181.892L142.628 188.105C143.594 189.034 144.682 189.725 145.893 190.175C147.103 190.626 148.324 190.851 149.557 190.851C150.79 190.851 152.021 190.634 153.249 190.202C154.478 189.77 155.575 189.089 156.54 188.159L163.184 182.043C164.617 180.758 166.019 179.468 167.396 178.176L186.181 193.583C187.21 194.61 188.465 195.158 189.946 195.227C191.428 195.294 192.683 194.745 193.712 193.583C194.699 192.553 195.192 191.332 195.192 189.917C195.192 188.505 194.699 187.304 193.712 186.315L174.838 170.878C177.301 168.351 179.659 165.815 181.907 163.265C187.488 156.937 190.278 149.859 190.278 142.03C190.278 135.413 188.056 129.888 183.611 125.453C179.166 121.018 173.627 118.801 166.994 118.801C163.645 118.801 160.471 119.446 157.472 120.734C156.718 121.058 155.986 121.416 155.277 121.809V101.044C155.277 99.5491 154.771 98.2953 153.758 97.2837C152.744 96.2721 151.489 95.7661 149.992 95.7661ZM167.021 129.07C170.732 129.07 173.824 130.298 176.298 132.753C178.772 135.209 180.01 138.301 180.01 142.03C180.01 145.351 178.833 148.847 176.48 152.516C174.127 156.184 171.318 159.755 168.054 163.23C164.79 166.704 161.432 169.957 157.978 172.989C154.524 176.021 151.716 178.537 149.557 180.54C147.412 178.579 144.62 176.082 141.181 173.046C137.742 170.011 134.397 166.755 131.147 163.277C127.898 159.799 125.105 156.211 122.771 152.511C120.436 148.812 119.269 145.318 119.269 142.03C119.269 138.301 120.494 135.209 122.945 132.753C125.396 130.298 128.459 129.07 132.135 129.07C135.014 129.07 137.546 129.764 139.732 131.153C141.919 132.541 143.839 134.45 145.493 136.879C145.983 137.634 146.577 138.201 147.277 138.579C147.977 138.956 148.737 139.145 149.557 139.145C150.377 139.145 151.144 138.956 151.857 138.579C152.57 138.201 153.177 137.634 153.677 136.879C155.331 134.45 157.242 132.541 159.409 131.153C161.577 129.764 164.115 129.07 167.021 129.07ZM70.833 145.524C69.3379 145.524 68.0847 146.03 67.0732 147.043C66.0617 148.057 65.5557 149.312 65.5557 150.809C65.5557 152.306 66.0617 153.559 67.0732 154.567C68.0847 155.575 69.3378 156.079 70.833 156.079H81.3887C82.884 156.079 84.1378 155.572 85.1494 154.559C86.1609 153.546 86.667 152.291 86.667 150.793C86.667 149.296 86.1609 148.044 85.1494 147.036C84.1378 146.028 82.884 145.524 81.3887 145.524H70.833ZM218.611 145.524C217.116 145.524 215.862 146.03 214.851 147.043C213.839 148.057 213.333 149.312 213.333 150.809C213.333 152.306 213.839 153.559 214.851 154.567C215.862 155.575 217.116 156.079 218.611 156.079H229.167C230.662 156.079 231.915 155.572 232.927 154.559C233.938 153.546 234.444 152.291 234.444 150.793C234.444 149.296 233.938 148.044 232.927 147.036C231.915 146.028 230.662 145.524 229.167 145.524H218.611ZM149.992 66.3569C148.495 66.3569 147.242 66.8629 146.234 67.8745C145.226 68.886 144.723 70.1391 144.723 71.6343V82.1899C144.723 83.6853 145.229 84.9391 146.242 85.9507C147.255 86.9622 148.511 87.4682 150.008 87.4683C151.505 87.4683 152.758 86.9622 153.766 85.9507C154.774 84.9391 155.277 83.6853 155.277 82.1899V71.6343C155.277 70.1391 154.771 68.886 153.758 67.8745C152.744 66.863 151.489 66.357 149.992 66.3569Z" fill="url(#paint0_linear_897_8)"/>
<defs>
<linearGradient id="paint0_linear_897_8" x1="150" y1="55.8013" x2="150" y2="245.801" gradientUnits="userSpaceOnUse">
<stop stop-color="white"/>
<stop offset="1" stop-color="#E7A63F"/>
</linearGradient>
</defs>
</svg>
