<svg width="300" height="301" viewBox="0 0 300 301" fill="none" xmlns="http://www.w3.org/2000/svg">
<path d="M110.915 219.124C112.187 217.396 114.618 217.026 116.346 218.297C118.073 219.569 118.443 222.001 117.172 223.729L107.562 236.785C106.548 238.161 104.923 238.983 103.214 238.983H103.201C101.486 238.979 99.8597 238.148 98.8496 236.762L94.3135 230.533C93.0508 228.798 93.4326 226.368 95.167 225.105C96.9014 223.843 99.3312 224.225 100.594 225.958L103.225 229.572L110.915 219.124Z" fill="url(#paint0_linear_897_18)"/>
<path d="M110.915 161.475C112.187 159.748 114.618 159.378 116.346 160.649C118.073 161.92 118.443 164.353 117.172 166.081L107.562 179.136C106.548 180.513 104.923 181.334 103.214 181.334H103.201C101.486 181.33 99.8597 180.5 98.8496 179.114L94.3135 172.884C93.0509 171.15 93.4326 168.719 95.167 167.457C96.9014 166.195 99.3312 166.577 100.594 168.31L103.225 171.923L110.915 161.475Z" fill="url(#paint1_linear_897_18)"/>
<path d="M110.915 103.828C112.187 102.1 114.618 101.73 116.346 103.001C118.073 104.273 118.443 106.705 117.172 108.433L107.562 121.489C106.548 122.866 104.923 123.687 103.214 123.687H103.201C101.486 123.683 99.8597 122.852 98.8496 121.466L94.3135 115.237C93.0507 113.502 93.4325 111.072 95.167 109.809C96.9014 108.547 99.3312 108.929 100.594 110.663L103.225 114.276L110.915 103.828Z" fill="url(#paint2_linear_897_18)"/>
<path fill-rule="evenodd" clip-rule="evenodd" d="M103.625 66.8442C103.625 70.71 106.759 73.8442 110.625 73.8442H191.693C195.559 73.8438 198.693 70.7097 198.693 66.8442V50.9819H230.046C235.174 50.9823 239.331 54.9617 239.331 59.8706V156.8H184.335C182.348 147.374 174.114 140.475 164.401 140.249L163.915 140.243H154.589C146.224 140.243 139.443 147.024 139.443 155.388L139.448 155.779C139.656 163.963 146.355 170.534 154.589 170.534H155.792L161.685 210.919L161.693 210.979L161.702 211.038C162.489 216.036 164.834 220.453 168.195 223.825C165.652 227.634 164.247 232.254 164.446 237.18C164.927 249.067 174.596 258.515 186.49 258.72L186.582 258.722H187.19L187.422 258.711C196.199 258.326 203.577 252.951 206.938 245.443C210.442 253.262 218.291 258.713 227.414 258.722C231.791 258.726 235.876 257.475 239.331 255.312V262.913C239.331 267.821 235.173 271.8 230.046 271.8H69.8809C64.7533 271.8 60.5958 267.822 60.5957 262.913V59.8706C60.5957 54.962 64.7527 50.9819 69.8809 50.9819H103.625V66.8442ZM90.7812 207.29C87.465 207.29 84.7755 209.979 84.7754 213.295V243.231C84.7756 246.547 87.4645 249.237 90.7812 249.237H120.717C124.033 249.237 126.722 246.547 126.723 243.231V213.295C126.723 209.979 124.033 207.29 120.717 207.29H90.7812ZM90.7812 149.641C87.4651 149.641 84.7757 152.331 84.7754 155.647V185.583C84.7754 188.899 87.4644 191.588 90.7812 191.588H120.717C124.033 191.588 126.723 188.899 126.723 185.583V155.647C126.722 152.331 124.033 149.641 120.717 149.641H90.7812ZM90.7812 91.9937C87.465 91.9938 84.7755 94.6832 84.7754 97.9995V127.935C84.7754 131.251 87.4644 133.941 90.7812 133.941H120.717C124.033 133.941 126.723 131.251 126.723 127.935V97.9995C126.723 94.6833 124.033 91.9938 120.717 91.9937H90.7812ZM144.069 117.2C141.924 117.2 140.185 118.938 140.185 121.083C140.185 123.229 141.924 124.968 144.069 124.968H168.081C170.226 124.968 171.966 123.229 171.966 121.083C171.965 118.938 170.226 117.2 168.081 117.2H144.069ZM144.066 100.965C141.921 100.966 140.183 102.705 140.183 104.85C140.183 106.995 141.921 108.734 144.066 108.735H192.092C194.237 108.735 195.976 106.995 195.977 104.85C195.976 102.705 194.237 100.965 192.092 100.965H144.066Z" fill="url(#paint3_linear_897_18)"/>
<path d="M186.397 224.393C186.84 224.392 187.277 224.417 187.708 224.462C187.986 224.492 188.262 224.532 188.534 224.581C193.914 225.539 198.071 230.117 198.318 235.763C198.606 242.324 193.519 247.876 186.959 248.164H186.67C186.222 248.156 185.78 248.12 185.346 248.064C185.101 248.032 184.858 247.993 184.618 247.947C184.376 247.9 184.136 247.848 183.898 247.787C183.839 247.771 183.78 247.755 183.721 247.739C178.841 246.399 175.207 242.031 174.994 236.754C174.729 230.193 179.833 224.658 186.395 224.393H186.397Z" fill="url(#paint4_linear_897_18)"/>
<path d="M227.447 224.381C234.007 224.394 239.32 229.713 239.326 236.273V236.284C239.32 242.851 233.991 248.17 227.424 248.164L227.423 248.163L227.422 248.164C227.419 248.164 227.417 248.163 227.414 248.163C226.652 248.161 225.907 248.086 225.185 247.948C225.035 247.919 224.887 247.887 224.74 247.853C224.561 247.812 224.385 247.766 224.209 247.716C219.205 246.309 215.537 241.714 215.542 236.261C215.547 231.35 218.53 227.136 222.78 225.327C222.82 225.31 222.86 225.295 222.899 225.279C223.794 224.909 224.743 224.645 225.732 224.503C225.867 224.484 226.003 224.466 226.139 224.452C226.567 224.405 227.003 224.381 227.444 224.381H227.447Z" fill="url(#paint5_linear_897_18)"/>
<path d="M163.911 150.801C165.29 150.802 166.611 151.076 167.821 151.573C167.93 151.617 168.037 151.664 168.144 151.712C171.288 153.13 173.622 156.081 174.128 159.688L175.274 167.359H247.671C247.961 167.359 248.251 167.388 248.535 167.443C251.022 167.924 252.648 170.33 252.167 172.817L244.702 210.026C244.013 213.384 242.026 216.197 239.331 217.991V217.993C239.306 218.009 239.28 218.025 239.255 218.042C239.159 218.105 239.062 218.167 238.964 218.227C238.917 218.256 238.869 218.283 238.822 218.311C238.656 218.411 238.487 218.508 238.315 218.6C238.258 218.631 238.201 218.663 238.143 218.693C238.062 218.735 237.98 218.774 237.898 218.814C237.832 218.847 237.766 218.879 237.699 218.911C237.614 218.95 237.529 218.989 237.443 219.027C237.378 219.056 237.312 219.085 237.246 219.113C237.167 219.146 237.088 219.178 237.009 219.209C236.924 219.243 236.838 219.276 236.752 219.308C236.682 219.334 236.612 219.36 236.542 219.385C236.466 219.412 236.389 219.438 236.312 219.463C236.224 219.493 236.136 219.522 236.047 219.549C235.985 219.568 235.923 219.585 235.861 219.603C235.739 219.639 235.615 219.674 235.491 219.706C235.36 219.739 235.228 219.772 235.096 219.801C235.052 219.811 235.008 219.819 234.964 219.829C234.839 219.855 234.713 219.88 234.587 219.903C234.538 219.912 234.489 219.92 234.439 219.928C234.318 219.949 234.197 219.967 234.074 219.984C234.015 219.992 233.957 220 233.897 220.007C233.787 220.021 233.677 220.033 233.566 220.043C233.503 220.05 233.44 220.056 233.376 220.061C233.26 220.07 233.144 220.077 233.027 220.083C232.968 220.087 232.909 220.091 232.85 220.093C232.678 220.1 232.505 220.105 232.332 220.105H184.617C184.603 220.105 184.588 220.103 184.573 220.103C184.066 220.1 183.565 220.065 183.071 220.003C182.14 219.887 181.238 219.668 180.377 219.359C180.261 219.317 180.145 219.274 180.03 219.229C175.942 217.625 172.848 213.954 172.13 209.395L165.067 160.984C165.002 160.441 164.563 160.025 164.028 159.979L163.921 159.974H154.587C152.054 159.974 150 157.921 150 155.388C150 152.855 152.054 150.801 154.587 150.801H163.911Z" fill="url(#paint6_linear_897_18)"/>
<path d="M164.503 29.8013C168.274 29.8015 171.332 32.8587 171.332 36.6294V41.6362C171.332 43.1783 172.582 44.4291 174.124 44.4292H185.256C188.959 44.4295 191.962 47.4313 191.962 51.1343V62.5249C191.962 64.7338 190.171 66.5245 187.962 66.5249H114.297C112.088 66.5249 110.297 64.734 110.297 62.5249V51.1343C110.297 47.4312 113.299 44.4293 117.002 44.4292H128.134C129.676 44.4289 130.927 43.1782 130.927 41.6362V36.6294C130.927 32.8587 133.984 29.8015 137.755 29.8013H164.503Z" fill="url(#paint7_linear_897_18)"/>
<defs>
<linearGradient id="paint0_linear_897_18" x1="158.798" y1="29.8026" x2="158.798" y2="271.801" gradientUnits="userSpaceOnUse">
<stop stop-color="white"/>
<stop offset="1" stop-color="#E7A63F"/>
</linearGradient>
<linearGradient id="paint1_linear_897_18" x1="158.798" y1="29.8026" x2="158.798" y2="271.801" gradientUnits="userSpaceOnUse">
<stop stop-color="white"/>
<stop offset="1" stop-color="#E7A63F"/>
</linearGradient>
<linearGradient id="paint2_linear_897_18" x1="158.798" y1="29.8026" x2="158.798" y2="271.801" gradientUnits="userSpaceOnUse">
<stop stop-color="white"/>
<stop offset="1" stop-color="#E7A63F"/>
</linearGradient>
<linearGradient id="paint3_linear_897_18" x1="158.798" y1="29.8026" x2="158.798" y2="271.801" gradientUnits="userSpaceOnUse">
<stop stop-color="white"/>
<stop offset="1" stop-color="#E7A63F"/>
</linearGradient>
<linearGradient id="paint4_linear_897_18" x1="158.798" y1="29.8026" x2="158.798" y2="271.801" gradientUnits="userSpaceOnUse">
<stop stop-color="white"/>
<stop offset="1" stop-color="#E7A63F"/>
</linearGradient>
<linearGradient id="paint5_linear_897_18" x1="158.798" y1="29.8026" x2="158.798" y2="271.801" gradientUnits="userSpaceOnUse">
<stop stop-color="white"/>
<stop offset="1" stop-color="#E7A63F"/>
</linearGradient>
<linearGradient id="paint6_linear_897_18" x1="158.798" y1="29.8026" x2="158.798" y2="271.801" gradientUnits="userSpaceOnUse">
<stop stop-color="white"/>
<stop offset="1" stop-color="#E7A63F"/>
</linearGradient>
<linearGradient id="paint7_linear_897_18" x1="158.798" y1="29.8026" x2="158.798" y2="271.801" gradientUnits="userSpaceOnUse">
<stop stop-color="white"/>
<stop offset="1" stop-color="#E7A63F"/>
</linearGradient>
</defs>
</svg>
