<svg width="300" height="301" viewBox="0 0 300 301" fill="none" xmlns="http://www.w3.org/2000/svg">
<path fill-rule="evenodd" clip-rule="evenodd" d="M149.999 29.8013C216.781 29.8013 270.999 84.0196 270.999 150.801C270.999 217.583 216.781 271.801 149.999 271.801C83.2174 271.801 28.9991 217.583 28.9991 150.801C28.9991 84.0196 83.2174 29.8013 149.999 29.8013ZM177.616 217.564C178.278 218.488 179.858 217.646 179.62 216.535C176.855 203.635 182.276 191.743 192.126 179.797C203.372 166.157 212.931 148.806 198.207 127.675C197.581 126.777 196.163 127.48 196.358 128.557C199.401 145.279 189.705 155.265 180.723 166.919C168.271 183.076 163.755 198.214 177.616 217.564ZM128.851 104.933C128.225 103.976 126.682 104.755 126.941 105.869C135.819 144.188 90.5973 150.126 94.5163 182.586C96.3891 198.097 106.602 211.217 128.289 220.88C129.244 221.306 130.097 220.156 129.438 219.344C118.1 205.402 108.008 187.929 118.731 170.304C131.352 149.558 148.58 135.064 128.851 104.933ZM145.197 63.7562C145.446 62.7323 144.184 61.9981 143.503 62.8021C116.053 95.2061 173.836 119.931 142.931 157.832C118.982 187.205 126.181 212.08 174.152 240.172C175.014 240.677 175.982 239.765 175.482 238.9C162.34 216.138 140.652 199.577 164.979 167.635C177.629 151.025 185.436 132.049 163.176 107.906C152.07 95.8615 140.178 84.3683 145.197 63.7562Z" fill="url(#paint0_linear_897_26)"/>
<defs>
<linearGradient id="paint0_linear_897_26" x1="149.999" y1="29.8026" x2="149.999" y2="271.801" gradientUnits="userSpaceOnUse">
<stop stop-color="white"/>
<stop offset="1" stop-color="#E7A63F"/>
</linearGradient>
</defs>
</svg>
