<svg width="300" height="301" viewBox="0 0 300 301" fill="none" xmlns="http://www.w3.org/2000/svg">
<path d="M184.409 244.652C186.415 244.652 188.339 245.448 189.757 246.867C191.175 248.285 191.972 250.209 191.972 252.214V260.197C191.972 261.301 191.076 262.197 189.972 262.197H110.406C109.302 262.197 108.406 261.301 108.406 260.197V252.214C108.406 250.209 109.203 248.285 110.621 246.867C112.039 245.448 113.963 244.652 115.969 244.652H184.409ZM175.15 223.825C176.255 223.825 177.15 224.719 177.15 225.824V234.44C177.15 235.544 176.255 236.44 175.15 236.44H124.852C123.747 236.44 122.852 235.544 122.852 234.44V225.824C122.852 224.719 123.747 223.825 124.852 223.825H175.15ZM263.211 39.4056C265.28 39.4157 267.261 40.2447 268.721 41.7113C270.18 43.1781 271 45.1634 271 47.2328V207.898C271 209.967 270.18 211.953 268.721 213.419C267.261 214.886 265.28 215.715 263.211 215.725H36.7891C34.7198 215.715 32.7389 214.886 31.2793 213.419C29.8196 211.953 29 209.967 29 207.898V47.2328C29 45.1634 29.8196 43.1781 31.2793 41.7113C32.7389 40.2447 34.7199 39.4157 36.7891 39.4056H263.211ZM51.6162 55.6654C47.7504 55.6656 44.6162 58.7995 44.6162 62.6654V179.496C44.6163 183.362 47.7504 186.496 51.6162 186.496H248.384C252.25 186.496 255.384 183.362 255.384 179.496V62.6654C255.384 58.7995 252.25 55.6656 248.384 55.6654H51.6162ZM240.27 66.2709C243.031 66.2709 245.27 68.5095 245.27 71.2709V170.28C245.269 173.041 243.031 175.28 240.27 175.28H59.7285C56.9672 175.28 54.7286 173.041 54.7285 170.28V71.2709C54.7285 68.5095 56.9671 66.2709 59.7285 66.2709H240.27ZM176.961 141.441C174.854 141.024 172.671 141.241 170.688 142.064C168.704 142.887 167.008 144.28 165.815 146.067C164.623 147.853 163.986 149.953 163.986 152.101C163.986 153.53 164.268 154.946 164.816 156.266C165.364 157.586 166.168 158.786 167.181 159.795C168.193 160.805 169.395 161.605 170.717 162.149C172.039 162.693 173.455 162.971 174.885 162.967C177.033 162.961 179.13 162.318 180.913 161.12C182.696 159.923 184.084 158.223 184.901 156.237C185.719 154.251 185.93 152.067 185.507 149.961C185.084 147.856 184.046 145.922 182.525 144.406C181.004 142.889 179.068 141.858 176.961 141.441ZM79.3965 141.584C73.5534 141.584 68.8164 146.321 68.8164 152.164C68.8166 158.007 73.5535 162.745 79.3965 162.745C85.2394 162.744 89.9764 158.007 89.9766 152.164C89.9766 146.321 85.2395 141.584 79.3965 141.584ZM99.5361 155.128C98.6656 155.128 97.8304 155.474 97.2148 156.089C96.5994 156.705 96.2539 157.54 96.2539 158.411C96.254 159.281 96.5996 160.115 97.2148 160.731C97.8304 161.346 98.6657 161.693 99.5361 161.693H133.379C134.249 161.693 135.085 161.346 135.7 160.731C136.315 160.115 136.661 159.281 136.661 158.411C136.661 157.54 136.316 156.705 135.7 156.089C135.085 155.474 134.249 155.128 133.379 155.128H99.5361ZM195.153 155.128C194.283 155.128 193.448 155.474 192.832 156.089C192.217 156.705 191.871 157.54 191.871 158.411C191.871 159.281 192.217 160.115 192.832 160.731C193.448 161.346 194.283 161.693 195.153 161.693H228.9C229.771 161.693 230.606 161.346 231.222 160.731C231.837 160.115 232.182 159.281 232.183 158.411C232.183 157.54 231.837 156.705 231.222 156.089C230.606 155.474 229.771 155.128 228.9 155.128H195.153ZM195.153 142.636C194.283 142.636 193.448 142.982 192.832 143.597C192.217 144.213 191.871 145.048 191.871 145.918C191.871 146.789 192.217 147.624 192.832 148.24C193.448 148.855 194.283 149.201 195.153 149.201H228.9C229.771 149.201 230.606 148.855 231.222 148.24C231.837 147.624 232.183 146.789 232.183 145.918C232.183 145.048 231.837 144.213 231.222 143.597C230.606 142.982 229.771 142.636 228.9 142.636H195.153ZM99.5361 142.54C99.1011 142.54 98.6701 142.628 98.2705 142.8C97.8711 142.972 97.5113 143.224 97.2129 143.54C96.9144 143.857 96.6836 144.231 96.5352 144.64C96.3868 145.049 96.3235 145.484 96.3496 145.918C96.3496 146.763 96.6856 147.574 97.2832 148.171C97.8808 148.769 98.691 149.105 99.5361 149.105H133.379C133.81 149.105 134.237 149.02 134.635 148.855C135.033 148.69 135.395 148.449 135.7 148.144C136.005 147.839 136.246 147.477 136.411 147.078C136.576 146.68 136.661 146.254 136.661 145.823C136.661 145.392 136.576 144.965 136.411 144.567C136.246 144.169 136.005 143.806 135.7 143.501C135.395 143.197 135.033 142.955 134.635 142.79C134.237 142.625 133.81 142.54 133.379 142.54H99.5361ZM150.361 116.824C149.809 116.824 149.361 117.271 149.361 117.824V130.418C149.361 130.971 149.809 131.418 150.361 131.418H162.319C162.871 131.418 163.319 130.97 163.319 130.418V117.824C163.319 117.271 162.871 116.824 162.319 116.824H150.361ZM184.203 87.4105C183.651 87.4105 183.203 87.8582 183.203 88.4105V130.418C183.203 130.971 183.651 131.418 184.203 131.418H196.161C196.713 131.418 197.161 130.971 197.161 130.419V88.4105C197.161 87.8583 196.713 87.4107 196.161 87.4105H184.203ZM201.125 110.068C200.573 110.068 200.125 110.516 200.125 111.068V130.418C200.125 130.971 200.573 131.418 201.125 131.418H213.083C213.635 131.418 214.083 130.97 214.083 130.418V111.068C214.083 110.516 213.635 110.068 213.083 110.068H201.125ZM167.281 101.815C166.729 101.815 166.281 102.263 166.281 102.815V130.387C166.281 130.939 166.729 131.387 167.281 131.387H179.239C179.791 131.387 180.239 130.939 180.239 130.387V102.815C180.239 102.263 179.791 101.815 179.239 101.815H167.281ZM218.045 78.5834C217.493 78.5834 217.045 79.0311 217.045 79.5834V130.387C217.045 130.939 217.493 131.387 218.045 131.387H230.003C230.555 131.387 231.003 130.939 231.003 130.387V79.5834C231.003 79.0312 230.555 78.5835 230.003 78.5834H218.045ZM96.5645 113.831C96.0093 115.003 94.3759 115.105 93.6797 114.011L88.9512 106.58L87.6846 108.692C87.3863 109.189 86.8492 109.493 86.2695 109.494H77.8008C78.1287 109.837 74.3807 106.092 97.4297 129.022C98.0734 129.662 99.1139 129.662 99.7578 129.022C122.452 106.445 119.06 109.836 119.388 109.494H109.158C108.551 109.494 107.993 109.16 107.705 108.625L103.09 100.055L96.5645 113.831ZM123.998 104.193C134.261 88.1526 113.977 69.8796 98.5928 83.3353C86.3108 72.593 70.6946 82.0311 70.4385 94.8265C70.3732 98.0875 71.3148 101.264 73.1885 104.193H85.333L87.4941 100.592C88.1214 99.5469 89.639 99.5129 90.3018 100.555L94.8594 107.717L101.503 93.6918C102.082 92.468 103.809 92.4291 104.448 93.6156L110.144 104.193H123.998Z" fill="black"/>
<path d="M184.409 244.652C186.415 244.652 188.339 245.448 189.757 246.867C191.175 248.285 191.972 250.209 191.972 252.214V260.197C191.972 261.301 191.076 262.197 189.972 262.197H110.406C109.302 262.197 108.406 261.301 108.406 260.197V252.214C108.406 250.209 109.203 248.285 110.621 246.867C112.039 245.448 113.963 244.652 115.969 244.652H184.409ZM175.15 223.825C176.255 223.825 177.15 224.719 177.15 225.824V234.44C177.15 235.544 176.255 236.44 175.15 236.44H124.852C123.747 236.44 122.852 235.544 122.852 234.44V225.824C122.852 224.719 123.747 223.825 124.852 223.825H175.15ZM263.211 39.4056C265.28 39.4157 267.261 40.2447 268.721 41.7113C270.18 43.1781 271 45.1634 271 47.2328V207.898C271 209.967 270.18 211.953 268.721 213.419C267.261 214.886 265.28 215.715 263.211 215.725H36.7891C34.7198 215.715 32.7389 214.886 31.2793 213.419C29.8196 211.953 29 209.967 29 207.898V47.2328C29 45.1634 29.8196 43.1781 31.2793 41.7113C32.7389 40.2447 34.7199 39.4157 36.7891 39.4056H263.211ZM51.6162 55.6654C47.7504 55.6656 44.6162 58.7995 44.6162 62.6654V179.496C44.6163 183.362 47.7504 186.496 51.6162 186.496H248.384C252.25 186.496 255.384 183.362 255.384 179.496V62.6654C255.384 58.7995 252.25 55.6656 248.384 55.6654H51.6162ZM240.27 66.2709C243.031 66.2709 245.27 68.5095 245.27 71.2709V170.28C245.269 173.041 243.031 175.28 240.27 175.28H59.7285C56.9672 175.28 54.7286 173.041 54.7285 170.28V71.2709C54.7285 68.5095 56.9671 66.2709 59.7285 66.2709H240.27ZM176.961 141.441C174.854 141.024 172.671 141.241 170.688 142.064C168.704 142.887 167.008 144.28 165.815 146.067C164.623 147.853 163.986 149.953 163.986 152.101C163.986 153.53 164.268 154.946 164.816 156.266C165.364 157.586 166.168 158.786 167.181 159.795C168.193 160.805 169.395 161.605 170.717 162.149C172.039 162.693 173.455 162.971 174.885 162.967C177.033 162.961 179.13 162.318 180.913 161.12C182.696 159.923 184.084 158.223 184.901 156.237C185.719 154.251 185.93 152.067 185.507 149.961C185.084 147.856 184.046 145.922 182.525 144.406C181.004 142.889 179.068 141.858 176.961 141.441ZM79.3965 141.584C73.5534 141.584 68.8164 146.321 68.8164 152.164C68.8166 158.007 73.5535 162.745 79.3965 162.745C85.2394 162.744 89.9764 158.007 89.9766 152.164C89.9766 146.321 85.2395 141.584 79.3965 141.584ZM99.5361 155.128C98.6656 155.128 97.8304 155.474 97.2148 156.089C96.5994 156.705 96.2539 157.54 96.2539 158.411C96.254 159.281 96.5996 160.115 97.2148 160.731C97.8304 161.346 98.6657 161.693 99.5361 161.693H133.379C134.249 161.693 135.085 161.346 135.7 160.731C136.315 160.115 136.661 159.281 136.661 158.411C136.661 157.54 136.316 156.705 135.7 156.089C135.085 155.474 134.249 155.128 133.379 155.128H99.5361ZM195.153 155.128C194.283 155.128 193.448 155.474 192.832 156.089C192.217 156.705 191.871 157.54 191.871 158.411C191.871 159.281 192.217 160.115 192.832 160.731C193.448 161.346 194.283 161.693 195.153 161.693H228.9C229.771 161.693 230.606 161.346 231.222 160.731C231.837 160.115 232.182 159.281 232.183 158.411C232.183 157.54 231.837 156.705 231.222 156.089C230.606 155.474 229.771 155.128 228.9 155.128H195.153ZM195.153 142.636C194.283 142.636 193.448 142.982 192.832 143.597C192.217 144.213 191.871 145.048 191.871 145.918C191.871 146.789 192.217 147.624 192.832 148.24C193.448 148.855 194.283 149.201 195.153 149.201H228.9C229.771 149.201 230.606 148.855 231.222 148.24C231.837 147.624 232.183 146.789 232.183 145.918C232.183 145.048 231.837 144.213 231.222 143.597C230.606 142.982 229.771 142.636 228.9 142.636H195.153ZM99.5361 142.54C99.1011 142.54 98.6701 142.628 98.2705 142.8C97.8711 142.972 97.5113 143.224 97.2129 143.54C96.9144 143.857 96.6836 144.231 96.5352 144.64C96.3868 145.049 96.3235 145.484 96.3496 145.918C96.3496 146.763 96.6856 147.574 97.2832 148.171C97.8808 148.769 98.691 149.105 99.5361 149.105H133.379C133.81 149.105 134.237 149.02 134.635 148.855C135.033 148.69 135.395 148.449 135.7 148.144C136.005 147.839 136.246 147.477 136.411 147.078C136.576 146.68 136.661 146.254 136.661 145.823C136.661 145.392 136.576 144.965 136.411 144.567C136.246 144.169 136.005 143.806 135.7 143.501C135.395 143.197 135.033 142.955 134.635 142.79C134.237 142.625 133.81 142.54 133.379 142.54H99.5361ZM150.361 116.824C149.809 116.824 149.361 117.271 149.361 117.824V130.418C149.361 130.971 149.809 131.418 150.361 131.418H162.319C162.871 131.418 163.319 130.97 163.319 130.418V117.824C163.319 117.271 162.871 116.824 162.319 116.824H150.361ZM184.203 87.4105C183.651 87.4105 183.203 87.8582 183.203 88.4105V130.418C183.203 130.971 183.651 131.418 184.203 131.418H196.161C196.713 131.418 197.161 130.971 197.161 130.419V88.4105C197.161 87.8583 196.713 87.4107 196.161 87.4105H184.203ZM201.125 110.068C200.573 110.068 200.125 110.516 200.125 111.068V130.418C200.125 130.971 200.573 131.418 201.125 131.418H213.083C213.635 131.418 214.083 130.97 214.083 130.418V111.068C214.083 110.516 213.635 110.068 213.083 110.068H201.125ZM167.281 101.815C166.729 101.815 166.281 102.263 166.281 102.815V130.387C166.281 130.939 166.729 131.387 167.281 131.387H179.239C179.791 131.387 180.239 130.939 180.239 130.387V102.815C180.239 102.263 179.791 101.815 179.239 101.815H167.281ZM218.045 78.5834C217.493 78.5834 217.045 79.0311 217.045 79.5834V130.387C217.045 130.939 217.493 131.387 218.045 131.387H230.003C230.555 131.387 231.003 130.939 231.003 130.387V79.5834C231.003 79.0312 230.555 78.5835 230.003 78.5834H218.045ZM96.5645 113.831C96.0093 115.003 94.3759 115.105 93.6797 114.011L88.9512 106.58L87.6846 108.692C87.3863 109.189 86.8492 109.493 86.2695 109.494H77.8008C78.1287 109.837 74.3807 106.092 97.4297 129.022C98.0734 129.662 99.1139 129.662 99.7578 129.022C122.452 106.445 119.06 109.836 119.388 109.494H109.158C108.551 109.494 107.993 109.16 107.705 108.625L103.09 100.055L96.5645 113.831ZM123.998 104.193C134.261 88.1526 113.977 69.8796 98.5928 83.3353C86.3108 72.593 70.6946 82.0311 70.4385 94.8265C70.3732 98.0875 71.3148 101.264 73.1885 104.193H85.333L87.4941 100.592C88.1214 99.5469 89.639 99.5129 90.3018 100.555L94.8594 107.717L101.503 93.6918C102.082 92.468 103.809 92.4291 104.448 93.6156L110.144 104.193H123.998Z" fill="url(#paint0_linear_897_32)"/>
<defs>
<linearGradient id="paint0_linear_897_32" x1="150" y1="39.4056" x2="150" y2="262.197" gradientUnits="userSpaceOnUse">
<stop stop-color="white"/>
<stop offset="1" stop-color="#E7A63F"/>
</linearGradient>
</defs>
</svg>
