<svg width="300" height="301" viewBox="0 0 300 301" fill="none" xmlns="http://www.w3.org/2000/svg">
<path d="M60.6689 226.89C66.1918 226.89 70.6689 231.367 70.6689 236.89V261.8C70.6689 267.323 66.1918 271.8 60.6689 271.8H38.999C33.4764 271.8 28.999 267.323 28.999 261.8V236.89C28.999 231.367 33.4764 226.89 38.999 226.89H60.6689Z" fill="black"/>
<path d="M60.6689 226.89C66.1918 226.89 70.6689 231.367 70.6689 236.89V261.8C70.6689 267.323 66.1918 271.8 60.6689 271.8H38.999C33.4764 271.8 28.999 267.323 28.999 261.8V236.89C28.999 231.367 33.4764 226.89 38.999 226.89H60.6689Z" fill="url(#paint0_linear_897_66)"/>
<path d="M127.339 226.89C132.862 226.89 137.339 231.367 137.339 236.89V261.8C137.339 267.323 132.862 271.8 127.339 271.8H105.669C100.146 271.8 95.6699 267.323 95.6699 261.8V236.89C95.6699 231.367 100.146 226.89 105.669 226.89H127.339Z" fill="black"/>
<path d="M127.339 226.89C132.862 226.89 137.339 231.367 137.339 236.89V261.8C137.339 267.323 132.862 271.8 127.339 271.8H105.669C100.146 271.8 95.6699 267.323 95.6699 261.8V236.89C95.6699 231.367 100.146 226.89 105.669 226.89H127.339Z" fill="url(#paint1_linear_897_66)"/>
<path d="M194.009 226.89C199.532 226.89 204.009 231.367 204.009 236.89V261.8C204.009 267.323 199.532 271.8 194.009 271.8H172.339C166.816 271.8 162.34 267.323 162.34 261.8V236.89C162.34 231.367 166.816 226.89 172.339 226.89H194.009Z" fill="black"/>
<path d="M194.009 226.89C199.532 226.89 204.009 231.367 204.009 236.89V261.8C204.009 267.323 199.532 271.8 194.009 271.8H172.339C166.816 271.8 162.34 267.323 162.34 261.8V236.89C162.34 231.367 166.816 226.89 172.339 226.89H194.009Z" fill="url(#paint2_linear_897_66)"/>
<path d="M260.839 226.89C266.362 226.89 270.839 231.367 270.839 236.89V261.8C270.839 267.323 266.362 271.8 260.839 271.8H239.169C233.646 271.8 229.17 267.323 229.17 261.8V236.89C229.17 231.367 233.646 226.89 239.169 226.89H260.839Z" fill="black"/>
<path d="M260.839 226.89C266.362 226.89 270.839 231.367 270.839 236.89V261.8C270.839 267.323 266.362 271.8 260.839 271.8H239.169C233.646 271.8 229.17 267.323 229.17 261.8V236.89C229.17 231.367 233.646 226.89 239.169 226.89H260.839Z" fill="url(#paint3_linear_897_66)"/>
<path d="M86.4414 161.089C89.4789 161.089 91.9414 163.552 91.9414 166.589V189.804C91.9414 197.812 98.4333 204.304 106.441 204.304H129.656C132.694 204.304 135.156 206.767 135.156 209.804C135.156 212.842 132.694 215.304 129.656 215.304H106.441C92.3581 215.304 80.9414 203.887 80.9414 189.804V166.589C80.9414 163.552 83.4039 161.089 86.4414 161.089Z" fill="black"/>
<path d="M86.4414 161.089C89.4789 161.089 91.9414 163.552 91.9414 166.589V189.804C91.9414 197.812 98.4333 204.304 106.441 204.304H129.656C132.694 204.304 135.156 206.767 135.156 209.804C135.156 212.842 132.694 215.304 129.656 215.304H106.441C92.3581 215.304 80.9414 203.887 80.9414 189.804V166.589C80.9414 163.552 83.4039 161.089 86.4414 161.089Z" fill="url(#paint4_linear_897_66)"/>
<path d="M213.397 160.463C216.435 160.463 218.897 162.926 218.897 165.963V189.178C218.897 203.261 207.481 214.678 193.397 214.678H170.183C167.145 214.678 164.683 212.216 164.683 209.178C164.683 206.141 167.145 203.678 170.183 203.678H193.397C201.406 203.678 207.897 197.186 207.897 189.178V165.963C207.898 162.926 210.36 160.463 213.397 160.463Z" fill="black"/>
<path d="M213.397 160.463C216.435 160.463 218.897 162.926 218.897 165.963V189.178C218.897 203.261 207.481 214.678 193.397 214.678H170.183C167.145 214.678 164.683 212.216 164.683 209.178C164.683 206.141 167.145 203.678 170.183 203.678H193.397C201.406 203.678 207.897 197.186 207.897 189.178V165.963C207.898 162.926 210.36 160.463 213.397 160.463Z" fill="url(#paint5_linear_897_66)"/>
<path d="M60.6689 160.98C66.1916 160.98 70.6687 165.456 70.6689 170.979V195.89C70.6689 201.413 66.1918 205.89 60.6689 205.89H38.999C33.4764 205.89 28.999 201.413 28.999 195.89V170.979C28.9993 165.457 33.4766 160.98 38.999 160.98H60.6689Z" fill="black"/>
<path d="M60.6689 160.98C66.1916 160.98 70.6687 165.456 70.6689 170.979V195.89C70.6689 201.413 66.1918 205.89 60.6689 205.89H38.999C33.4764 205.89 28.999 201.413 28.999 195.89V170.979C28.9993 165.457 33.4766 160.98 38.999 160.98H60.6689Z" fill="url(#paint6_linear_897_66)"/>
<path d="M260.839 160.979C266.362 160.979 270.839 165.456 270.839 170.979V195.89C270.839 201.413 266.362 205.89 260.839 205.89H239.169C233.646 205.89 229.17 201.413 229.17 195.89V170.979C229.17 165.456 233.646 160.979 239.169 160.979H260.839Z" fill="black"/>
<path d="M260.839 160.979C266.362 160.979 270.839 165.456 270.839 170.979V195.89C270.839 201.413 266.362 205.89 260.839 205.89H239.169C233.646 205.89 229.17 201.413 229.17 195.89V170.979C229.17 165.456 233.646 160.979 239.169 160.979H260.839Z" fill="url(#paint7_linear_897_66)"/>
<path d="M185.956 108.466C191.479 108.466 195.956 112.944 195.956 118.466V182.492C195.956 188.015 191.479 192.492 185.956 192.492H113.882C108.359 192.491 103.883 188.014 103.883 182.492V118.466C103.883 112.944 108.359 108.467 113.882 108.466H185.956Z" fill="black"/>
<path d="M185.956 108.466C191.479 108.466 195.956 112.944 195.956 118.466V182.492C195.956 188.015 191.479 192.492 185.956 192.492H113.882C108.359 192.491 103.883 188.014 103.883 182.492V118.466C103.883 112.944 108.359 108.467 113.882 108.466H185.956Z" fill="url(#paint8_linear_897_66)"/>
<path d="M130.059 86.2808C133.096 86.2808 135.559 88.7432 135.559 91.7808C135.558 94.8181 133.096 97.2808 130.059 97.2808H106.844C98.8358 97.281 92.3438 103.773 92.3438 111.781V134.996C92.3435 138.033 89.8812 140.496 86.8438 140.496C83.8065 140.495 81.344 138.033 81.3438 134.996V111.781C81.3438 97.6976 92.7607 86.281 106.844 86.2808H130.059Z" fill="black"/>
<path d="M130.059 86.2808C133.096 86.2808 135.559 88.7432 135.559 91.7808C135.558 94.8181 133.096 97.2808 130.059 97.2808H106.844C98.8358 97.281 92.3438 103.773 92.3438 111.781V134.996C92.3435 138.033 89.8812 140.496 86.8438 140.496C83.8065 140.495 81.344 138.033 81.3438 134.996V111.781C81.3438 97.6976 92.7607 86.281 106.844 86.2808H130.059Z" fill="url(#paint9_linear_897_66)"/>
<path d="M60.6689 95.0688C66.1918 95.0688 70.6689 99.546 70.6689 105.069V129.979C70.6689 135.502 66.1918 139.979 60.6689 139.979H38.999C33.4764 139.979 28.999 135.502 28.999 129.979V105.069C28.999 99.5462 33.4764 95.0691 38.999 95.0688H60.6689Z" fill="black"/>
<path d="M60.6689 95.0688C66.1918 95.0688 70.6689 99.546 70.6689 105.069V129.979C70.6689 135.502 66.1918 139.979 60.6689 139.979H38.999C33.4764 139.979 28.999 135.502 28.999 129.979V105.069C28.999 99.5462 33.4764 95.0691 38.999 95.0688H60.6689Z" fill="url(#paint10_linear_897_66)"/>
<path d="M260.839 95.0688C266.362 95.0688 270.839 99.546 270.839 105.069V129.979C270.839 135.502 266.362 139.979 260.839 139.979H239.169C233.646 139.979 229.17 135.502 229.17 129.979V105.069C229.17 99.5462 233.646 95.0691 239.169 95.0688H260.839Z" fill="black"/>
<path d="M260.839 95.0688C266.362 95.0688 270.839 99.546 270.839 105.069V129.979C270.839 135.502 266.362 139.979 260.839 139.979H239.169C233.646 139.979 229.17 135.502 229.17 129.979V105.069C229.17 99.5462 233.646 95.0691 239.169 95.0688H260.839Z" fill="url(#paint11_linear_897_66)"/>
<path d="M192.994 85.6548C207.077 85.6548 218.494 97.0715 218.494 111.155V134.37C218.494 137.407 216.032 139.87 212.994 139.87C209.957 139.869 207.494 137.407 207.494 134.37V111.155C207.494 103.147 201.002 96.6548 192.994 96.6548H169.779C166.742 96.6546 164.279 94.1921 164.279 91.1548C164.279 88.1174 166.742 85.655 169.779 85.6548H192.994Z" fill="black"/>
<path d="M192.994 85.6548C207.077 85.6548 218.494 97.0715 218.494 111.155V134.37C218.494 137.407 216.032 139.87 212.994 139.87C209.957 139.869 207.494 137.407 207.494 134.37V111.155C207.494 103.147 201.002 96.6548 192.994 96.6548H169.779C166.742 96.6546 164.279 94.1921 164.279 91.1548C164.279 88.1174 166.742 85.655 169.779 85.6548H192.994Z" fill="url(#paint12_linear_897_66)"/>
<path d="M60.6689 29.1587C66.1916 29.1587 70.6687 33.6351 70.6689 39.1577V64.0688C70.6689 69.5917 66.1918 74.0688 60.6689 74.0688H38.999C33.4764 74.0686 28.999 69.5915 28.999 64.0688V39.1577C28.9993 33.6353 33.4766 29.159 38.999 29.1587H60.6689Z" fill="black"/>
<path d="M60.6689 29.1587C66.1916 29.1587 70.6687 33.6351 70.6689 39.1577V64.0688C70.6689 69.5917 66.1918 74.0688 60.6689 74.0688H38.999C33.4764 74.0686 28.999 69.5915 28.999 64.0688V39.1577C28.9993 33.6353 33.4766 29.159 38.999 29.1587H60.6689Z" fill="url(#paint13_linear_897_66)"/>
<path d="M127.339 29.1587C132.862 29.1587 137.339 33.6351 137.339 39.1577V64.0688C137.339 69.5917 132.862 74.0688 127.339 74.0688H105.669C100.146 74.0686 95.6699 69.5915 95.6699 64.0688V39.1577C95.6702 33.6353 100.146 29.159 105.669 29.1587H127.339Z" fill="black"/>
<path d="M127.339 29.1587C132.862 29.1587 137.339 33.6351 137.339 39.1577V64.0688C137.339 69.5917 132.862 74.0688 127.339 74.0688H105.669C100.146 74.0686 95.6699 69.5915 95.6699 64.0688V39.1577C95.6702 33.6353 100.146 29.159 105.669 29.1587H127.339Z" fill="url(#paint14_linear_897_66)"/>
<path d="M194.009 29.1587C199.531 29.1587 204.009 33.6351 204.009 39.1577V64.0688C204.009 69.5917 199.532 74.0688 194.009 74.0688H172.339C166.816 74.0686 162.34 69.5915 162.34 64.0688V39.1577C162.34 33.6353 166.816 29.159 172.339 29.1587H194.009Z" fill="black"/>
<path d="M194.009 29.1587C199.531 29.1587 204.009 33.6351 204.009 39.1577V64.0688C204.009 69.5917 199.532 74.0688 194.009 74.0688H172.339C166.816 74.0686 162.34 69.5915 162.34 64.0688V39.1577C162.34 33.6353 166.816 29.159 172.339 29.1587H194.009Z" fill="url(#paint15_linear_897_66)"/>
<path d="M260.839 29.1587C266.362 29.1587 270.839 33.6351 270.839 39.1577V64.0688C270.839 69.5917 266.362 74.0688 260.839 74.0688H239.169C233.646 74.0686 229.17 69.5915 229.17 64.0688V39.1577C229.17 33.6353 233.646 29.159 239.169 29.1587H260.839Z" fill="black"/>
<path d="M260.839 29.1587C266.362 29.1587 270.839 33.6351 270.839 39.1577V64.0688C270.839 69.5917 266.362 74.0688 260.839 74.0688H239.169C233.646 74.0686 229.17 69.5915 229.17 64.0688V39.1577C229.17 33.6353 233.646 29.159 239.169 29.1587H260.839Z" fill="url(#paint16_linear_897_66)"/>
<defs>
<linearGradient id="paint0_linear_897_66" x1="149.632" y1="29.8048" x2="149.632" y2="271.16" gradientUnits="userSpaceOnUse">
<stop stop-color="white"/>
<stop offset="1" stop-color="#E7A63F"/>
</linearGradient>
<linearGradient id="paint1_linear_897_66" x1="149.632" y1="29.8048" x2="149.632" y2="271.16" gradientUnits="userSpaceOnUse">
<stop stop-color="white"/>
<stop offset="1" stop-color="#E7A63F"/>
</linearGradient>
<linearGradient id="paint2_linear_897_66" x1="149.632" y1="29.8048" x2="149.632" y2="271.16" gradientUnits="userSpaceOnUse">
<stop stop-color="white"/>
<stop offset="1" stop-color="#E7A63F"/>
</linearGradient>
<linearGradient id="paint3_linear_897_66" x1="149.632" y1="29.8048" x2="149.632" y2="271.16" gradientUnits="userSpaceOnUse">
<stop stop-color="white"/>
<stop offset="1" stop-color="#E7A63F"/>
</linearGradient>
<linearGradient id="paint4_linear_897_66" x1="149.632" y1="29.8048" x2="149.632" y2="271.16" gradientUnits="userSpaceOnUse">
<stop stop-color="white"/>
<stop offset="1" stop-color="#E7A63F"/>
</linearGradient>
<linearGradient id="paint5_linear_897_66" x1="149.632" y1="29.8048" x2="149.632" y2="271.16" gradientUnits="userSpaceOnUse">
<stop stop-color="white"/>
<stop offset="1" stop-color="#E7A63F"/>
</linearGradient>
<linearGradient id="paint6_linear_897_66" x1="149.632" y1="29.8048" x2="149.632" y2="271.16" gradientUnits="userSpaceOnUse">
<stop stop-color="white"/>
<stop offset="1" stop-color="#E7A63F"/>
</linearGradient>
<linearGradient id="paint7_linear_897_66" x1="149.632" y1="29.8048" x2="149.632" y2="271.16" gradientUnits="userSpaceOnUse">
<stop stop-color="white"/>
<stop offset="1" stop-color="#E7A63F"/>
</linearGradient>
<linearGradient id="paint8_linear_897_66" x1="149.632" y1="29.8048" x2="149.632" y2="271.16" gradientUnits="userSpaceOnUse">
<stop stop-color="white"/>
<stop offset="1" stop-color="#E7A63F"/>
</linearGradient>
<linearGradient id="paint9_linear_897_66" x1="149.632" y1="29.8048" x2="149.632" y2="271.16" gradientUnits="userSpaceOnUse">
<stop stop-color="white"/>
<stop offset="1" stop-color="#E7A63F"/>
</linearGradient>
<linearGradient id="paint10_linear_897_66" x1="149.632" y1="29.8048" x2="149.632" y2="271.16" gradientUnits="userSpaceOnUse">
<stop stop-color="white"/>
<stop offset="1" stop-color="#E7A63F"/>
</linearGradient>
<linearGradient id="paint11_linear_897_66" x1="149.632" y1="29.8048" x2="149.632" y2="271.16" gradientUnits="userSpaceOnUse">
<stop stop-color="white"/>
<stop offset="1" stop-color="#E7A63F"/>
</linearGradient>
<linearGradient id="paint12_linear_897_66" x1="149.632" y1="29.8048" x2="149.632" y2="271.16" gradientUnits="userSpaceOnUse">
<stop stop-color="white"/>
<stop offset="1" stop-color="#E7A63F"/>
</linearGradient>
<linearGradient id="paint13_linear_897_66" x1="149.632" y1="29.8048" x2="149.632" y2="271.16" gradientUnits="userSpaceOnUse">
<stop stop-color="white"/>
<stop offset="1" stop-color="#E7A63F"/>
</linearGradient>
<linearGradient id="paint14_linear_897_66" x1="149.632" y1="29.8048" x2="149.632" y2="271.16" gradientUnits="userSpaceOnUse">
<stop stop-color="white"/>
<stop offset="1" stop-color="#E7A63F"/>
</linearGradient>
<linearGradient id="paint15_linear_897_66" x1="149.632" y1="29.8048" x2="149.632" y2="271.16" gradientUnits="userSpaceOnUse">
<stop stop-color="white"/>
<stop offset="1" stop-color="#E7A63F"/>
</linearGradient>
<linearGradient id="paint16_linear_897_66" x1="149.632" y1="29.8048" x2="149.632" y2="271.16" gradientUnits="userSpaceOnUse">
<stop stop-color="white"/>
<stop offset="1" stop-color="#E7A63F"/>
</linearGradient>
</defs>
</svg>
