<svg width="300" height="301" viewBox="0 0 300 301" fill="none" xmlns="http://www.w3.org/2000/svg">
<path d="M146.789 30.9674C148.649 29.4135 151.349 29.4135 153.208 30.9674C193.567 58.6379 232.131 62.1765 247.158 62.3765C249.858 62.3 252.125 64.3891 252.227 67.0894C254.163 116.993 253.042 180.323 231.364 210.077C211.911 236.77 174.273 260.047 156.874 268.719C152.5 270.9 147.493 270.909 143.116 268.735C125.714 260.091 88.0845 236.81 68.6342 210.077C46.9555 180.323 45.8338 116.994 47.7699 67.0894C47.8719 64.3892 50.1392 62.3003 52.8393 62.3765C68.9433 61.5839 107.805 57.9026 146.789 30.9674ZM127.925 95.0152V115.545H117.868C115.431 115.545 113.456 117.521 113.455 119.958C113.456 122.394 115.431 124.369 117.868 124.369H121.581L114.801 192.173H111.732C109.293 192.173 107.316 194.151 107.316 196.589C107.316 199.028 109.293 201.005 111.732 201.005H113.918L113.226 207.926C113.211 208.076 113.204 208.225 113.204 208.372H107.612C105.175 208.372 103.2 210.347 103.2 212.783C103.2 215.219 105.175 217.194 107.612 217.194H129.053C131.489 217.194 133.464 215.219 133.464 212.783C133.464 210.347 131.489 208.372 129.053 208.372H122.057L122.794 201.005L177.195 201.006L177.932 208.372H170.947C168.51 208.372 166.536 210.347 166.536 212.783C166.536 215.219 168.51 217.194 170.947 217.194H192.388C194.824 217.194 196.799 215.219 196.799 212.783C196.799 210.347 194.824 208.372 192.388 208.372H186.786C186.786 208.225 186.779 208.076 186.764 207.926L186.072 201.006H188.258C190.696 201.006 192.674 199.028 192.674 196.589C192.674 194.151 190.696 192.174 188.258 192.173H185.189L178.408 124.369H182.135C184.571 124.368 186.547 122.394 186.547 119.958C186.547 117.521 184.571 115.546 182.135 115.545H172.065V95.0162L127.925 95.0152ZM166.357 192.173H133.633L149.995 181.483L166.357 192.173ZM175.879 187.844L158.058 176.203L173.694 165.989L175.879 187.844ZM141.931 176.202L124.111 187.843L126.296 165.988L141.931 176.202ZM169.677 158.063L149.995 170.92L130.313 158.062L149.995 143.272L169.677 158.063ZM171.968 148.737L157.335 137.741L169.923 128.282L171.968 148.737ZM142.655 137.74L128.022 148.736L130.067 128.281L142.655 137.74ZM160.309 124.458L149.995 132.207L139.681 124.458H160.309ZM149.99 62.0416C149.357 62.044 148.725 62.1819 148.138 62.4556L124.585 73.4576C123.031 74.1835 122.038 75.7436 122.038 77.4586V81.7672C122.038 84.2058 124.016 86.1832 126.455 86.1832H173.536C175.974 86.1827 177.951 84.2055 177.952 81.7672V77.4595C177.951 75.7448 176.958 74.1837 175.405 73.4576L151.851 62.4566C151.264 62.1826 150.632 62.0442 149.999 62.0416H149.99Z" fill="url(#paint0_linear_897_20)"/>
<defs>
<linearGradient id="paint0_linear_897_20" x1="149.999" y1="29.8018" x2="149.999" y2="271.801" gradientUnits="userSpaceOnUse">
<stop stop-color="white"/>
<stop offset="1" stop-color="#E7A63F"/>
</linearGradient>
</defs>
</svg>
