<svg width="300" height="301" viewBox="0 0 300 301" fill="none" xmlns="http://www.w3.org/2000/svg">
<path d="M260.478 99.9623C256.719 85.2225 248.708 72.5125 237.31 63.2065C226.206 54.1415 212.604 49.1484 199.01 49.1484C188.586 49.1484 178.645 51.9549 169.459 57.4886C163.226 61.2454 157.53 66.1644 152.434 72.1833C151.16 73.6885 148.803 73.6881 147.53 72.1818C134.895 57.2305 118.734 49.1484 100.975 49.1484C87.3853 49.1484 73.7887 54.1415 62.6868 63.2065C51.2923 72.5125 43.2828 85.2208 39.5242 99.9606C36.9506 110.054 35.6858 123.948 39.9553 140.598C40.5046 142.74 42.4672 144.191 44.6785 144.191H75.1058L87.4387 119.523C88.5595 117.283 90.8477 115.868 93.3511 115.868C95.8563 115.868 98.1445 117.283 99.2636 119.523L119.885 160.764C120.622 162.238 122.726 162.238 123.463 160.764L144.084 119.523C145.203 117.283 147.491 115.868 149.997 115.868C152.5 115.868 154.788 117.283 155.909 119.523L168.242 144.191H223.996C227.648 144.191 230.606 147.15 230.606 150.8C230.606 154.452 227.648 157.412 223.996 157.412H164.156C161.653 157.412 159.365 155.997 158.244 153.757L151.785 140.838C151.048 139.364 148.945 139.364 148.208 140.838L127.586 182.079C126.465 184.319 124.177 185.733 121.674 185.733C119.169 185.733 116.881 184.319 115.761 182.079L95.1417 140.838C94.4047 139.364 92.301 139.364 91.564 140.838L85.104 153.758C83.9831 155.997 81.6949 157.412 79.1915 157.412H50.5464C48.3686 157.412 46.9225 159.657 47.895 161.606C49.6839 165.19 51.7381 168.861 54.0902 172.61C72.0858 201.31 103.284 227.902 146.813 251.647C147.8 252.185 148.89 252.454 149.979 252.454C151.069 252.454 152.157 252.185 153.144 251.648C196.687 227.9 227.894 201.31 245.898 172.611C265.35 141.603 264.563 115.99 260.478 99.9623Z" fill="url(#paint0_linear_897_45)"/>
<defs>
<linearGradient id="paint0_linear_897_45" x1="150" y1="49.1495" x2="150" y2="252.454" gradientUnits="userSpaceOnUse">
<stop stop-color="white"/>
<stop offset="1" stop-color="#E7A63F"/>
</linearGradient>
</defs>
</svg>
