<svg width="300" height="301" viewBox="0 0 300 301" fill="none" xmlns="http://www.w3.org/2000/svg">
<path d="M175.413 243.127C178.939 243.127 181.317 246.688 179.381 249.634C173.017 259.316 162.064 265.723 149.636 265.723C137.208 265.723 126.255 259.316 119.891 249.634C117.955 246.688 120.333 243.127 123.859 243.127H175.413Z" fill="url(#paint0_linear_897_30)"/>
<path d="M65.0744 54.1499C68.3301 50.8945 73.6089 50.8944 76.8645 54.1499L113.191 90.4771C123.563 83.3376 136.12 79.1549 149.636 79.1548C185.165 79.1548 214.071 108.061 214.071 143.589V165.226C214.071 191.286 227.126 204.343 240.947 218.166C241.139 218.357 241.317 218.558 241.482 218.767L254.646 231.932C257.901 235.188 257.901 240.466 254.646 243.722C251.39 246.977 246.112 246.977 242.857 243.722L65.0744 65.9399C61.8189 62.6842 61.8188 57.4055 65.0744 54.1499Z" fill="url(#paint1_linear_897_30)"/>
<path d="M209.706 229.661H63.0862C60.3633 229.661 57.907 228.02 56.8645 225.504C55.8222 222.988 56.3988 220.091 58.3244 218.166C72.1464 204.343 85.2023 191.287 85.2024 165.226V143.589C85.2024 132.498 88.019 122.052 92.9748 112.929L209.706 229.661Z" fill="url(#paint2_linear_897_30)"/>
<path d="M149.638 35.8794C165.282 35.8794 178.009 48.6069 178.009 64.2505C178.009 64.9182 177.985 65.5809 177.939 66.2368C177.767 68.6494 175.242 69.9757 172.935 69.2505C165.576 66.9378 157.751 65.687 149.638 65.687C141.525 65.687 133.7 66.9378 126.341 69.2505C124.034 69.9757 121.509 68.6494 121.337 66.2368C121.291 65.5809 121.267 64.9182 121.267 64.2505C121.267 48.6069 133.994 35.8794 149.638 35.8794Z" fill="url(#paint3_linear_897_30)"/>
<defs>
<linearGradient id="paint0_linear_897_30" x1="156.481" y1="35.8806" x2="156.481" y2="265.723" gradientUnits="userSpaceOnUse">
<stop stop-color="white"/>
<stop offset="1" stop-color="#E7A63F"/>
</linearGradient>
<linearGradient id="paint1_linear_897_30" x1="156.481" y1="35.8806" x2="156.481" y2="265.723" gradientUnits="userSpaceOnUse">
<stop stop-color="white"/>
<stop offset="1" stop-color="#E7A63F"/>
</linearGradient>
<linearGradient id="paint2_linear_897_30" x1="156.481" y1="35.8806" x2="156.481" y2="265.723" gradientUnits="userSpaceOnUse">
<stop stop-color="white"/>
<stop offset="1" stop-color="#E7A63F"/>
</linearGradient>
<linearGradient id="paint3_linear_897_30" x1="156.481" y1="35.8806" x2="156.481" y2="265.723" gradientUnits="userSpaceOnUse">
<stop stop-color="white"/>
<stop offset="1" stop-color="#E7A63F"/>
</linearGradient>
</defs>
</svg>
